<svg xmlns="http://www.w3.org/2000/svg" viewBox="0 0 16 13" shape-rendering="crispEdges" preserveAspectRatio="xMidYMid meet">
    <rect x="14" y="0" width="1" height="1" fill="#f3f3ff" fill-opacity="0.08" /><rect x="15" y="0" width="1" height="1" fill="#ffffff" fill-opacity="0.11" /><rect x="11" y="1" width="1" height="1" fill="#ffffff" fill-opacity="0.06" /><rect x="12" y="1" width="1" height="1" fill="#ffffff" fill-opacity="0.42" /><rect x="13" y="1" width="1" height="1" fill="#feffff" fill-opacity="0.76" /><rect x="14" y="1" width="1" height="1" fill="#ffffff" fill-opacity="1.00" /><rect x="15" y="1" width="1" height="1" fill="#fefeff" fill-opacity="0.94" /><rect x="9" y="2" width="1" height="1" fill="#fbfbff" fill-opacity="0.28" /><rect x="10" y="2" width="1" height="1" fill="#fefefe" fill-opacity="0.67" /><rect x="11" y="2" width="1" height="1" fill="#ffffff" fill-opacity="0.97" /><rect x="12" y="2" width="1" height="1" fill="#ffffff" fill-opacity="1.00" /><rect x="13" y="2" width="1" height="1" fill="#ffffff" fill-opacity="1.00" /><rect x="14" y="2" width="1" height="1" fill="#ffffff" fill-opacity="1.00" /><rect x="15" y="2" width="1" height="1" fill="#ffffff" fill-opacity="0.84" /><rect x="6" y="3" width="1" height="1" fill="#f6f6ff" fill-opacity="0.11" /><rect x="7" y="3" width="1" height="1" fill="#fdffff" fill-opacity="0.50" /><rect x="8" y="3" width="1" height="1" fill="#ffffff" fill-opacity="0.89" /><rect x="9" y="3" width="1" height="1" fill="#ffffff" fill-opacity="1.00" /><rect x="10" y="3" width="1" height="1" fill="#ffffff" fill-opacity="1.00" /><rect x="11" y="3" width="1" height="1" fill="#ffffff" fill-opacity="0.92" /><rect x="12" y="3" width="1" height="1" fill="#ffffff" fill-opacity="1.00" /><rect x="13" y="3" width="1" height="1" fill="#ffffff" fill-opacity="1.00" /><rect x="14" y="3" width="1" height="1" fill="#ffffff" fill-opacity="1.00" /><rect x="15" y="3" width="1" height="1" fill="#ffffff" fill-opacity="0.72" /><rect x="4" y="4" width="1" height="1" fill="#ffffff" fill-opacity="0.30" /><rect x="5" y="4" width="1" height="1" fill="#fefefe" fill-opacity="0.69" /><rect x="6" y="4" width="1" height="1" fill="#fefefe" fill-opacity="1.00" /><rect x="7" y="4" width="1" height="1" fill="#ffffff" fill-opacity="1.00" /><rect x="8" y="4" width="1" height="1" fill="#ffffff" fill-opacity="1.00" /><rect x="9" y="4" width="1" height="1" fill="#ffffff" fill-opacity="0.96" /><rect x="10" y="4" width="1" height="1" fill="#fdffff" fill-opacity="0.46" /><rect x="11" y="4" width="1" height="1" fill="#ffffff" fill-opacity="0.11" /><rect x="12" y="4" width="1" height="1" fill="#ffffff" fill-opacity="0.92" /><rect x="13" y="4" width="1" height="1" fill="#ffffff" fill-opacity="1.00" /><rect x="14" y="4" width="1" height="1" fill="#ffffff" fill-opacity="1.00" /><rect x="15" y="4" width="1" height="1" fill="#fdffff" fill-opacity="0.57" /><rect x="1" y="5" width="1" height="1" fill="#f6f6ff" fill-opacity="0.11" /><rect x="2" y="5" width="1" height="1" fill="#fdffff" fill-opacity="0.50" /><rect x="3" y="5" width="1" height="1" fill="#ffffff" fill-opacity="0.89" /><rect x="4" y="5" width="1" height="1" fill="#ffffff" fill-opacity="1.00" /><rect x="5" y="5" width="1" height="1" fill="#ffffff" fill-opacity="1.00" /><rect x="6" y="5" width="1" height="1" fill="#ffffff" fill-opacity="1.00" /><rect x="7" y="5" width="1" height="1" fill="#ffffff" fill-opacity="1.00" /><rect x="8" y="5" width="1" height="1" fill="#ffffff" fill-opacity="0.71" /><rect x="9" y="5" width="1" height="1" fill="#ffffff" fill-opacity="0.11" /><rect x="10" y="5" width="1" height="1" fill="#ffffff" fill-opacity="0.09" /><rect x="11" y="5" width="1" height="1" fill="#ffffff" fill-opacity="0.83" /><rect x="12" y="5" width="1" height="1" fill="#ffffff" fill-opacity="1.00" /><rect x="13" y="5" width="1" height="1" fill="#ffffff" fill-opacity="1.00" /><rect x="14" y="5" width="1" height="1" fill="#ffffff" fill-opacity="1.00" /><rect x="15" y="5" width="1" height="1" fill="#fdfdff" fill-opacity="0.42" /><rect x="0" y="6" width="1" height="1" fill="#fdfdfd" fill-opacity="0.45" /><rect x="1" y="6" width="1" height="1" fill="#fefeff" fill-opacity="1.00" /><rect x="2" y="6" width="1" height="1" fill="#ffffff" fill-opacity="1.00" /><rect x="3" y="6" width="1" height="1" fill="#ffffff" fill-opacity="1.00" /><rect x="4" y="6" width="1" height="1" fill="#ffffff" fill-opacity="1.00" /><rect x="5" y="6" width="1" height="1" fill="#ffffff" fill-opacity="1.00" /><rect x="6" y="6" width="1" height="1" fill="#ffffff" fill-opacity="0.89" /><rect x="7" y="6" width="1" height="1" fill="#ffffff" fill-opacity="0.31" /><rect x="9" y="6" width="1" height="1" fill="#ffffff" fill-opacity="0.16" /><rect x="10" y="6" width="1" height="1" fill="#fefeff" fill-opacity="0.84" /><rect x="11" y="6" width="1" height="1" fill="#ffffff" fill-opacity="1.00" /><rect x="12" y="6" width="1" height="1" fill="#ffffff" fill-opacity="1.00" /><rect x="13" y="6" width="1" height="1" fill="#ffffff" fill-opacity="1.00" /><rect x="14" y="6" width="1" height="1" fill="#ffffff" fill-opacity="1.00" /><rect x="15" y="6" width="1" height="1" fill="#fbfbff" fill-opacity="0.24" /><rect x="0" y="7" width="1" height="1" fill="#ffffff" fill-opacity="0.28" /><rect x="1" y="7" width="1" height="1" fill="#ffffff" fill-opacity="0.71" /><rect x="2" y="7" width="1" height="1" fill="#ffffff" fill-opacity="0.98" /><rect x="3" y="7" width="1" height="1" fill="#ffffff" fill-opacity="1.00" /><rect x="4" y="7" width="1" height="1" fill="#ffffff" fill-opacity="0.97" /><rect x="5" y="7" width="1" height="1" fill="#ffffff" fill-opacity="0.56" /><rect x="6" y="7" width="1" height="1" fill="#ffffff" fill-opacity="0.05" /><rect x="8" y="7" width="1" height="1" fill="#f9f9ff" fill-opacity="0.17" /><rect x="9" y="7" width="1" height="1" fill="#ffffff" fill-opacity="0.92" /><rect x="10" y="7" width="1" height="1" fill="#ffffff" fill-opacity="1.00" /><rect x="11" y="7" width="1" height="1" fill="#ffffff" fill-opacity="1.00" /><rect x="12" y="7" width="1" height="1" fill="#ffffff" fill-opacity="1.00" /><rect x="13" y="7" width="1" height="1" fill="#ffffff" fill-opacity="1.00" /><rect x="14" y="7" width="1" height="1" fill="#ffffff" fill-opacity="1.00" /><rect x="15" y="7" width="1" height="1" fill="#ffffff" fill-opacity="0.05" /><rect x="2" y="8" width="1" height="1" fill="#cccccc" fill-opacity="0.02" /><rect x="3" y="8" width="1" height="1" fill="#ffffff" fill-opacity="0.16" /><rect x="4" y="8" width="1" height="1" fill="#ffffff" fill-opacity="0.08" /><rect x="7" y="8" width="1" height="1" fill="#fcffff" fill-opacity="0.30" /><rect x="8" y="8" width="1" height="1" fill="#ffffff" fill-opacity="0.95" /><rect x="9" y="8" width="1" height="1" fill="#ffffff" fill-opacity="1.00" /><rect x="10" y="8" width="1" height="1" fill="#ffffff" fill-opacity="1.00" /><rect x="11" y="8" width="1" height="1" fill="#ffffff" fill-opacity="1.00" /><rect x="12" y="8" width="1" height="1" fill="#ffffff" fill-opacity="1.00" /><rect x="13" y="8" width="1" height="1" fill="#ffffff" fill-opacity="1.00" /><rect x="14" y="8" width="1" height="1" fill="#fefefe" fill-opacity="0.89" /><rect x="7" y="9" width="1" height="1" fill="#ffffff" fill-opacity="0.89" /><rect x="8" y="9" width="1" height="1" fill="#ffffff" fill-opacity="1.00" /><rect x="9" y="9" width="1" height="1" fill="#ffffff" fill-opacity="1.00" /><rect x="10" y="9" width="1" height="1" fill="#ffffff" fill-opacity="1.00" /><rect x="11" y="9" width="1" height="1" fill="#ffffff" fill-opacity="1.00" /><rect x="12" y="9" width="1" height="1" fill="#ffffff" fill-opacity="1.00" /><rect x="13" y="9" width="1" height="1" fill="#ffffff" fill-opacity="1.00" /><rect x="14" y="9" width="1" height="1" fill="#fcfeff" fill-opacity="0.69" /><rect x="7" y="10" width="1" height="1" fill="#ffffff" fill-opacity="0.11" /><rect x="8" y="10" width="1" height="1" fill="#fdffff" fill-opacity="0.65" /><rect x="9" y="10" width="1" height="1" fill="#ffffff" fill-opacity="1.00" /><rect x="10" y="10" width="1" height="1" fill="#ffffff" fill-opacity="1.00" /><rect x="11" y="10" width="1" height="1" fill="#ffffff" fill-opacity="1.00" /><rect x="12" y="10" width="1" height="1" fill="#ffffff" fill-opacity="1.00" /><rect x="13" y="10" width="1" height="1" fill="#ffffff" fill-opacity="1.00" /><rect x="14" y="10" width="1" height="1" fill="#fdffff" fill-opacity="0.52" /><rect x="9" y="11" width="1" height="1" fill="#ffffff" fill-opacity="0.23" /><rect x="10" y="11" width="1" height="1" fill="#ffffff" fill-opacity="0.79" /><rect x="11" y="11" width="1" height="1" fill="#ffffff" fill-opacity="1.00" /><rect x="12" y="11" width="1" height="1" fill="#ffffff" fill-opacity="1.00" /><rect x="13" y="11" width="1" height="1" fill="#ffffff" fill-opacity="1.00" /><rect x="14" y="11" width="1" height="1" fill="#fcfcff" fill-opacity="0.30" /><rect x="10" y="12" width="1" height="1" fill="#ffffff" fill-opacity="0.00" /><rect x="11" y="12" width="1" height="1" fill="#ffffff" fill-opacity="0.40" /><rect x="12" y="12" width="1" height="1" fill="#feffff" fill-opacity="0.87" /><rect x="13" y="12" width="1" height="1" fill="#ffffff" fill-opacity="0.89" /><rect x="14" y="12" width="1" height="1" fill="#ebffff" fill-opacity="0.05" />
    </svg>